<svg width="415" height="304" viewBox="0 0 415 304" fill="none" xmlns="http://www.w3.org/2000/svg">
<g clip-path="url(#clip0)">
<path opacity="0.18" d="M60.502 21.0719C40.7437 31.4559 23.2391 46.38 13.2473 65.3087C3.25543 84.2374 1.55256 105.285 0.500786 126.053C-0.550988 149.335 -0.425777 172.618 5.70957 195.202C11.3942 215.993 22.0872 235.318 34.0824 253.641C42.8973 267.098 52.8391 280.509 67.0631 289.1C77.4952 294.947 89.0271 298.897 101.045 300.742C141.637 308.046 183.686 302.694 220.672 285.515C248.219 272.663 272.159 253.501 301.233 244.398C326.751 236.412 355.399 236.389 378.388 223.444C407.036 207.146 420.159 172.362 413.147 141.838C406.135 111.315 381.468 85.9603 351.568 71.7114C334.614 63.6557 316.283 58.9992 299.205 51.4789C282.126 43.9586 266.524 33.6678 249.871 25.3093C190.371 -4.60872 120.453 -10.4526 60.502 21.0719Z" fill="#4FC3F7"/>
<path d="M264.496 105.563L267.827 106.867C269.043 107.175 270.089 107.899 270.757 108.892C271.105 109.942 271.042 111.071 270.581 112.082C270.131 113.456 269.605 114.829 269.029 116.18C268.278 117.973 267.401 119.742 266.825 121.581C265.697 126.234 265.493 131.04 266.224 135.76C266.224 137.297 264.12 138.089 262.493 138.298C259.423 138.899 256.239 138.746 253.252 137.856C252.976 137.784 252.719 137.657 252.501 137.483C252.229 137.16 252.104 136.751 252.15 136.343C251.975 133.805 251.975 131.174 251.599 128.846C251.45 127.575 251.173 126.32 250.773 125.097C250.489 123.898 250.272 122.685 250.122 121.465C249.897 120.487 249.571 119.533 249.396 118.555C249.179 117.568 249.257 116.546 249.621 115.598C250.072 114.573 250.698 113.619 251.249 112.641C251.838 111.577 252.357 110.481 252.801 109.358C253.041 108.539 253.404 107.755 253.878 107.03C254.477 106.369 255.225 105.839 256.069 105.476C256.913 105.114 257.832 104.929 258.761 104.934C260.699 104.755 262.656 104.97 264.496 105.563Z" fill="#FFBBAB"/>
<path d="M243.987 93.5258C243.038 92.4183 242.27 91.1866 241.708 89.8705C241.078 88.187 240.69 86.4333 240.556 84.6552C240.454 84.0163 240.505 83.3643 240.706 82.746C241.032 81.9079 241.833 81.2792 242.083 80.4178C242.12 80.3278 242.12 80.2284 242.083 80.1384C242.083 80.1384 241.958 79.9521 241.758 79.9521L240.706 79.696C240.882 78.9005 240.74 78.0724 240.305 77.3678C240.178 77.1112 239.973 76.8951 239.714 76.7461C239.456 76.5971 239.157 76.5218 238.853 76.5296C238.202 76.5296 237.876 77.2979 237.325 77.6472C236.774 77.9964 236.173 78.043 235.698 78.3922C235.192 78.8994 234.906 79.5631 234.896 80.2548C234.862 81.9304 235.133 83.5992 235.698 85.1907C236.057 87.0488 236.542 88.8839 237.15 90.6854C239.076 96.2404 242.156 101.39 246.215 105.842C247.768 107.542 253.728 114.247 256.082 112.524C259.413 110.196 257.234 106.355 254.93 104.515C250.814 101.281 247.139 97.5903 243.987 93.5258Z" fill="#FFBBAB"/>
<path d="M257.985 104.445C256.858 106.052 255.756 107.705 254.73 109.381C254.534 109.63 254.393 109.913 254.316 110.212C254.239 110.512 254.226 110.823 254.279 111.128C254.466 111.523 254.805 111.839 255.23 112.012C256.105 112.376 257.064 112.528 258.018 112.454C258.972 112.381 259.891 112.085 260.69 111.593C262.263 110.564 263.657 109.315 264.822 107.891C265.45 107.104 266.232 106.433 267.126 105.912C267.58 105.66 268.099 105.527 268.628 105.527C269.157 105.527 269.676 105.66 270.131 105.912C270.349 106.042 270.535 106.213 270.676 106.414C270.818 106.616 270.912 106.843 270.952 107.08C270.993 107.318 270.978 107.561 270.91 107.793C270.842 108.025 270.721 108.241 270.556 108.427C270.556 107.682 269.58 107.216 268.803 107.402C268.049 107.69 267.423 108.207 267.025 108.869C266.422 109.668 265.87 110.5 265.373 111.36C264.972 111.99 264.676 112.673 264.496 113.386C264.445 114.269 264.585 115.152 264.907 115.984C265.23 116.816 265.729 117.579 266.374 118.229C266.839 118.744 267.211 119.326 267.476 119.952C267.667 120.956 267.581 121.99 267.226 122.955C266.312 127.058 266.083 131.267 266.55 135.434C266.667 135.834 266.68 136.253 266.589 136.658C266.497 137.062 266.304 137.441 266.024 137.763C265.54 138.114 264.934 138.288 264.321 138.252C261.441 138.252 258.586 137.646 255.681 137.716C253.901 137.894 252.112 137.98 250.322 137.972C250.191 137.987 250.058 137.971 249.936 137.924C249.814 137.878 249.707 137.804 249.624 137.708C249.541 137.613 249.486 137.499 249.464 137.378C249.441 137.258 249.452 137.133 249.496 137.018C250.298 132.398 250.424 127.699 249.871 123.048C249.269 120.939 248.9 118.778 248.77 116.599C248.746 116.12 248.841 115.642 249.045 115.202C249.276 114.777 249.571 114.385 249.922 114.038C251.803 111.928 253.155 109.454 253.878 106.797" fill="white"/>
<path opacity="0.1" d="M265.272 125.982C265.291 126.37 265.213 126.757 265.043 127.113C264.874 127.468 264.618 127.783 264.296 128.031C264.088 128.117 263.887 128.219 263.695 128.333C263.319 128.659 263.369 129.218 263.294 129.684C262.973 130.539 262.481 131.329 261.842 132.012C261.539 132.375 261.375 132.821 261.375 133.281C261.375 133.74 261.539 134.187 261.842 134.55C262.292 134.969 263.044 135.039 263.419 135.528C263.795 136.017 263.419 137.6 264.196 138.089C264.448 138.188 264.731 138.201 264.993 138.124C265.254 138.047 265.478 137.886 265.623 137.67C265.892 137.229 266.038 136.733 266.049 136.226C266.633 130.995 267.167 125.741 267.651 120.464C267.718 120.188 267.71 119.9 267.627 119.628C267.543 119.355 267.388 119.106 267.176 118.904C266.8 118.415 266.299 117.484 265.748 117.228C265.122 118.089 265.598 119.952 265.598 120.953C265.498 122.652 265.423 124.329 265.272 125.982Z" fill="#020202"/>
<path d="M251.549 95.3652C251.221 95.7586 251.005 96.2234 250.923 96.7156C250.986 97.0631 251.122 97.3955 251.324 97.6935C251.684 98.4274 251.896 99.2166 251.95 100.022C251.928 100.626 252.093 101.224 252.426 101.745C252.718 102.003 253.065 102.2 253.445 102.325C253.824 102.449 254.228 102.497 254.629 102.466H256.483C256.704 102.409 256.938 102.409 257.159 102.466C257.363 102.564 257.529 102.719 257.635 102.909C258.21 104.166 258.557 105.504 258.661 106.867C258.713 107.098 258.825 107.314 258.987 107.495C259.115 107.665 259.287 107.801 259.488 107.891C260.791 108.369 262.241 108.369 263.545 107.891C263.88 107.797 264.171 107.6 264.371 107.332C264.499 106.993 264.499 106.624 264.371 106.285C264.229 105.347 264.011 104.421 263.72 103.514C263.197 102.324 262.925 101.051 262.918 99.7656C262.918 98.6248 263.595 97.5771 263.795 96.4595C263.941 95.2794 263.677 94.0869 263.042 93.0563C262.406 92.0258 261.433 91.2113 260.264 90.732C259.269 90.3667 258.199 90.2147 257.132 90.2873C256.066 90.3598 255.03 90.6551 254.104 91.1511C253.427 91.477 252.877 91.64 252.551 92.3152C252.225 92.9904 252.15 94.4106 251.549 95.3652Z" fill="#FFBBAB"/>
<path d="M251.725 88.4271C251.615 87.9997 251.557 87.5625 251.549 87.1232C251.549 85.6332 252.476 83.9335 254.054 83.887C255.18 83.887 256.182 84.6786 257.334 84.6786C257.809 84.619 258.277 84.5256 258.736 84.3992C259.94 84.143 261.189 84.143 262.393 84.3992C264.992 84.8268 267.31 86.1798 268.853 88.1709C269.622 89.1863 270.054 90.3879 270.099 91.6286C270.143 92.8693 269.798 94.0951 269.104 95.1557C268.278 96.3198 267 97.158 266.124 98.2989C265.703 99.0112 265.244 99.7028 264.747 100.371C264.296 100.86 263.244 101.652 262.493 101.302C261.741 100.953 261.691 99.8122 261.166 99.3233C261.681 98.9447 262.174 98.5405 262.643 98.1126C262.871 97.8955 263.029 97.6236 263.1 97.3275C263.171 97.0313 263.151 96.7226 263.044 96.4362C262.743 95.8775 261.716 95.7611 261.466 96.4362C261.544 95.6522 261.426 94.862 261.122 94.1271C260.818 93.3922 260.336 92.7324 259.713 92.1988C259.533 91.9911 259.312 91.8173 259.062 91.6866C258.789 91.6398 258.509 91.6398 258.236 91.6866H255.932C254.604 91.6866 253.953 92.0359 253.002 90.9881C252.349 90.249 251.91 89.3677 251.725 88.4271Z" fill="#FC682D"/>
<path d="M259.237 102.699C259.445 102.682 259.651 102.74 259.813 102.862C259.947 103.022 260.017 103.219 260.014 103.421C260.114 104.451 260.114 105.487 260.014 106.518C259.986 106.791 259.91 107.059 259.788 107.309C259.716 107.431 259.611 107.533 259.484 107.607C259.357 107.68 259.211 107.722 259.062 107.728C258.736 107.728 258.461 107.472 258.11 107.402C257.927 107.366 257.738 107.367 257.556 107.408C257.374 107.448 257.204 107.526 257.059 107.635C256.776 107.862 256.524 108.12 256.307 108.403C255.752 109.054 255.141 109.661 254.479 110.219C254.925 108.805 255.601 107.463 256.483 106.238C256.683 105.885 256.998 105.599 257.384 105.423C257.685 105.423 258.06 105.423 258.261 105.121C258.461 104.818 258.261 104.236 258.035 103.84C257.81 103.444 257.234 102.885 257.584 102.606C257.935 102.327 258.937 102.676 259.237 102.699Z" fill="#E0A194"/>
<path d="M283.378 97.2045C284.367 96.3438 285.287 95.4178 286.133 94.4339C288.551 91.6248 289.875 88.137 289.889 84.5388C289.801 84.1472 289.801 83.743 289.889 83.3514C289.94 83.161 290.051 82.9888 290.207 82.8564C290.363 82.7239 290.557 82.637 290.765 82.6063C290.948 82.6296 291.134 82.6296 291.316 82.6063C291.592 82.6063 291.717 82.2571 291.942 82.0708C292.13 81.9613 292.347 81.9032 292.569 81.9032C292.79 81.9032 293.007 81.9613 293.195 82.0708C293.578 82.2957 293.91 82.5884 294.171 82.9323C294.572 83.4445 294.973 83.98 295.323 84.5155C295.64 84.9257 295.831 85.4088 295.874 85.9125C295.768 86.7246 295.329 87.4672 294.647 87.9846C293.871 87.9846 293.27 89.9171 293.069 90.3129C292.669 91.3606 292.218 92.4083 291.717 93.4094C288.731 99.4625 284.314 104.811 278.795 109.055C276.942 110.476 269.93 116.04 267.827 114.061C264.947 111.221 267.827 107.798 270.331 106.331C275.075 103.81 279.458 100.744 283.378 97.2045Z" fill="#FFBBAB"/>
<path d="M253.102 97.7866C253.56 97.7517 254.021 97.7517 254.479 97.7866C254.507 97.7742 254.537 97.7678 254.567 97.7678C254.597 97.7678 254.627 97.7742 254.655 97.7866C254.905 98.4417 254.905 99.157 254.655 99.8122C254.559 100.064 254.395 100.288 254.179 100.464C254.06 100.537 253.921 100.576 253.778 100.576C253.636 100.576 253.496 100.537 253.377 100.464C253.189 100.318 253.05 100.124 252.977 99.9053C252.627 99.2493 252.479 98.5158 252.551 97.7866C252.831 97.7284 253.122 97.7284 253.402 97.7866" fill="white"/>
<path d="M250.147 99.3698H249.922C249.936 99.3549 249.953 99.343 249.972 99.3349C249.992 99.3267 250.013 99.3225 250.034 99.3225C250.056 99.3225 250.077 99.3267 250.096 99.3349C250.116 99.343 250.133 99.3549 250.147 99.3698Z" fill="#4FC3F7"/>
<path d="M291.867 93.6656C291.787 94.9244 291.401 96.15 290.74 97.2511C286.739 105.058 279.901 111.3 271.433 114.876C270.947 115.022 270.508 115.278 270.156 115.621C269.901 115.948 269.722 116.321 269.63 116.715C267.702 123.7 268.127 130.825 266.75 137.809C266.704 138.434 266.43 139.025 265.974 139.486C265.313 139.921 264.494 140.096 263.695 139.975H262.067C258.2 139.78 254.347 139.399 250.523 138.834C249.85 138.802 249.216 138.536 248.745 138.089C248.421 137.533 248.332 136.886 248.494 136.273C248.674 131.476 248.465 126.674 247.868 121.907C247.655 119.583 247.655 117.247 247.868 114.923C248.182 113.761 248.182 112.545 247.868 111.384C247.724 111.045 247.521 110.73 247.267 110.452C246.173 109.483 245.019 108.573 243.811 107.728C242.149 105.973 240.964 103.874 240.355 101.605C239.203 98.392 238.001 95.2023 236.9 91.9893C236.073 89.661 237.375 88.5667 239.254 87.682C239.93 87.356 240.681 87.0534 241.457 86.7274C242.122 89.2157 243.079 91.6283 244.312 93.9217C245.53 96.187 247.496 98.0307 249.922 99.1836C249.882 99.1836 249.843 99.1983 249.815 99.2245C249.787 99.2507 249.771 99.2862 249.771 99.3233C249.771 99.4104 249.794 99.4962 249.838 99.5733C249.881 99.6504 249.944 99.7164 250.022 99.7656C251.7 101.209 253.402 102.629 255.03 104.096C255.344 104.4 255.73 104.631 256.157 104.771C256.658 104.771 258.386 104.352 258.311 105.214C258.322 105.26 258.322 105.308 258.311 105.353C258.311 105.656 258.01 105.889 257.96 106.192C257.951 106.375 258.001 106.558 258.104 106.715C258.206 106.873 258.357 106.998 258.536 107.076C258.892 107.242 259.293 107.307 259.688 107.263C260.125 107.238 260.556 107.152 260.965 107.006C261.641 106.75 262.192 106.308 262.843 106.005C263.837 105.66 264.92 105.603 265.949 105.842C267.071 105.921 268.2 105.858 269.304 105.656C272.5 104.963 275.455 103.53 277.894 101.489C281.303 98.4159 284.466 95.1166 287.36 91.6167C287.683 91.2137 288.103 90.8867 288.587 90.6622C288.996 90.5365 289.435 90.5224 289.852 90.6214C290.269 90.7204 290.647 90.9285 290.941 91.2209C291.275 91.5429 291.53 91.9278 291.69 92.3496C291.85 92.7714 291.91 93.2202 291.867 93.6656Z" fill="white"/>
<path d="M291.867 93.6656C291.787 94.9244 291.401 96.15 290.74 97.2511C286.739 105.058 279.901 111.3 271.433 114.876C270.947 115.022 270.508 115.278 270.156 115.621C269.901 115.948 269.722 116.321 269.63 116.715C267.702 123.7 268.127 130.825 266.75 137.809C266.704 138.434 266.43 139.025 265.974 139.486C265.313 139.921 264.494 140.096 263.695 139.975H262.067C258.2 139.78 254.347 139.399 250.523 138.834C249.85 138.802 249.216 138.536 248.745 138.089C248.421 137.533 248.332 136.886 248.494 136.273C248.674 131.476 248.465 126.674 247.868 121.907C247.655 119.583 247.655 117.247 247.868 114.923C248.182 113.761 248.182 112.545 247.868 111.384C247.724 111.045 247.521 110.73 247.267 110.452C246.173 109.483 245.019 108.573 243.811 107.728C242.149 105.973 240.964 103.874 240.355 101.605C239.203 98.392 238.001 95.2023 236.9 91.9893C236.073 89.661 237.375 88.5667 239.254 87.682C239.93 87.356 240.681 87.0534 241.457 86.7274C242.122 89.2157 243.079 91.6283 244.312 93.9217C245.53 96.187 247.496 98.0307 249.922 99.1836C249.882 99.1836 249.843 99.1983 249.815 99.2245C249.787 99.2507 249.771 99.2862 249.771 99.3233C249.771 99.4104 249.794 99.4962 249.838 99.5733C249.881 99.6504 249.944 99.7164 250.022 99.7656C251.7 101.209 253.402 102.629 255.03 104.096C255.344 104.4 255.73 104.631 256.157 104.771C256.658 104.771 258.386 104.352 258.311 105.214C258.322 105.26 258.322 105.308 258.311 105.353C258.311 105.656 258.01 105.889 257.96 106.192C257.951 106.375 258.001 106.558 258.104 106.715C258.206 106.873 258.357 106.998 258.536 107.076C258.892 107.242 259.293 107.307 259.688 107.263C260.125 107.238 260.556 107.152 260.965 107.006C261.641 106.75 262.192 106.308 262.843 106.005C263.837 105.66 264.92 105.603 265.949 105.842C267.071 105.921 268.2 105.858 269.304 105.656C272.5 104.963 275.455 103.53 277.894 101.489C281.303 98.4159 284.466 95.1166 287.36 91.6167C287.683 91.2137 288.103 90.8867 288.587 90.6622C288.996 90.5365 289.435 90.5224 289.852 90.6214C290.269 90.7204 290.647 90.9285 290.941 91.2209C291.275 91.5429 291.53 91.9278 291.69 92.3496C291.85 92.7714 291.91 93.2202 291.867 93.6656Z" fill="url(#paint0_linear)"/>
<path d="M247.918 111.29C247.718 111.011 247.543 110.708 247.317 110.452C246.223 109.483 245.069 108.573 243.861 107.728C242.199 105.973 241.014 103.874 240.405 101.605C239.254 98.392 238.052 95.2023 236.95 91.9893C236.123 89.661 237.425 88.5667 239.304 87.682C239.689 88.016 239.996 88.4202 240.205 88.8694C240.595 89.8564 240.872 90.8787 241.032 91.9194C241.649 94.2958 242.718 96.5507 244.187 98.5782C245.664 100.767 247.067 103.002 248.544 105.19C248.631 105.313 248.699 105.446 248.745 105.586C248.805 105.8 248.805 106.025 248.745 106.238C248.448 107.099 248.263 107.99 248.194 108.892C248.068 109.451 248.394 110.988 247.918 111.29Z" fill="url(#paint1_linear)"/>
<path d="M291.867 93.6656C291.787 94.9244 291.401 96.15 290.74 97.2512C286.739 105.058 279.901 111.3 271.433 114.876C270.947 115.022 270.508 115.278 270.156 115.621C269.901 115.948 269.722 116.321 269.63 116.715C267.702 123.7 268.127 130.825 266.75 137.809C266.704 138.434 266.43 139.025 265.974 139.486C265.313 139.921 264.494 140.097 263.695 139.975H262.067C261.597 139.944 261.145 139.791 260.765 139.532C260.403 139.211 260.173 138.783 260.114 138.322C259.775 135.68 259.649 133.018 259.738 130.359C259.791 129.02 259.501 127.688 258.891 126.473C258.282 125.259 257.37 124.197 256.232 123.374C255.655 123.117 255.123 122.78 254.655 122.373C254.434 122.16 254.311 121.877 254.311 121.581C254.311 121.286 254.434 121.002 254.655 120.79C254.892 120.643 255.17 120.562 255.456 120.557C257.087 120.45 258.71 120.248 260.314 119.952C261.925 119.675 263.365 118.843 264.346 117.623C265.172 116.459 265.348 114.969 266.249 113.852C267.477 112.697 269.031 111.89 270.732 111.523C276.63 109.383 281.85 105.891 285.907 101.372C287.71 99.3466 289.088 95.6912 291.316 94.1779C291.472 93.9833 291.658 93.8108 291.867 93.6656Z" fill="url(#paint2_linear)"/>
<path d="M165.454 183.699C155.11 190.644 144.133 196.737 132.649 201.906L131.021 202.092H130.57C130.131 202.074 129.701 201.967 129.31 201.779C128.919 201.591 128.578 201.326 128.308 201.002C128.039 200.679 127.849 200.305 127.751 199.906C127.653 199.507 127.649 199.093 127.74 198.693C127.846 197.847 128.005 197.007 128.216 196.179C129.669 189.846 131.13 183.521 132.599 177.203C132.682 176.972 132.677 176.721 132.586 176.493C132.495 176.264 132.323 176.071 132.098 175.946L105.879 157.017C105.712 156.866 105.497 156.77 105.266 156.745C105.035 156.72 104.801 156.766 104.601 156.878C103.049 157.623 101.446 158.298 99.8434 158.973C94.2089 161.441 88.7747 163.769 83.2154 166.097C82.8507 166.269 82.4512 166.367 82.0431 166.385C81.6349 166.403 81.2273 166.34 80.8468 166.202C80.4663 166.064 80.1215 165.852 79.8349 165.581C79.5483 165.311 79.3263 164.987 79.1836 164.631L78.858 163.932V163.56C79.107 161.689 79.458 159.832 79.9098 157.995C82.71 148.332 86.1473 138.838 90.2022 129.567C92.0985 124.578 95.8098 120.362 100.695 117.647C104.401 115.699 108.487 114.456 112.715 113.991C115.985 113.553 119.279 113.289 122.582 113.2H125.712C125.93 113.172 126.139 113.104 126.329 113C126.518 112.896 126.683 112.758 126.814 112.594C129.318 109.195 131.672 105.609 134.327 102.35C138.025 97.444 142.004 92.7264 146.247 88.2174C150.67 84.0291 155.317 80.0505 160.17 76.2968C165.078 72.2585 170.357 68.628 175.947 65.4471C184.34 60.9626 193.333 57.526 202.692 55.2261C204.495 54.7139 206.323 54.2715 208.151 53.8059L211.907 53.4333H212.584C213.46 53.5299 214.289 53.8573 214.972 54.3771C215.655 54.8968 216.165 55.5872 216.44 56.3669C216.452 56.4675 216.452 56.569 216.44 56.6696C216.61 57.438 216.727 58.2157 216.791 58.9979C217.158 63.085 217.074 67.1965 216.54 71.2678C215.994 78.6241 214.437 85.8851 211.907 92.8739C209.372 99.3756 206.36 105.708 202.892 111.826C200.157 117.052 196.921 122.039 193.226 126.727C187.332 133.904 181.029 140.782 174.344 147.332C174.136 147.506 173.989 147.735 173.922 147.988C173.855 148.241 173.871 148.507 173.968 148.752C174.419 150.568 174.845 152.384 175.196 154.2C176.092 157.966 176.429 161.828 176.197 165.678C176.048 169.254 174.999 172.748 173.133 175.878C171.267 179.008 168.637 181.687 165.454 183.699Z" fill="white"/>
<path d="M121.755 166.703L105.979 155.271C105.979 155.271 112.765 135.83 122.582 113.2H125.712C125.93 113.172 126.139 113.104 126.329 113C126.518 112.896 126.683 112.758 126.814 112.594C129.318 109.195 131.672 105.609 134.327 102.35C138.025 97.444 142.004 92.7264 146.247 88.2174C150.67 84.0291 155.317 80.0505 160.17 76.2968C165.078 72.2585 170.357 68.628 175.947 65.4471C184.34 60.9626 193.333 57.526 202.692 55.2261C204.495 54.7139 206.323 54.2715 208.151 53.8059L211.907 53.4333H212.584C213.46 53.5299 214.289 53.8573 214.972 54.3771C215.655 54.8968 216.165 55.5872 216.44 56.3669C216.452 56.4675 216.452 56.569 216.44 56.6696C207.5 63.4216 142.916 113.037 121.755 166.703Z" fill="url(#paint3_linear)"/>
<path d="M139.861 123.374C141.855 122.398 143.645 121.097 145.145 119.532C148.225 123.328 149.302 128.17 151.38 132.501C151.771 133.566 152.527 134.483 153.534 135.109C154.436 135.459 155.415 135.603 156.389 135.528H162.174C164.229 135.536 166.262 135.131 168.134 134.34C169.16 133.875 170.162 132.943 169.862 132.012C169.561 131.081 168.109 130.662 166.932 130.662C165.451 130.749 163.964 130.624 162.524 130.289C160.71 129.559 159.267 128.208 158.492 126.517C157.69 124.943 157.036 123.307 156.539 121.628C155.51 118.775 154.237 116.004 152.733 113.339C151.881 111.68 150.719 110.175 149.302 108.892C148.593 108.257 147.752 107.764 146.83 107.444C145.908 107.124 144.926 106.983 143.943 107.03C140.387 107.379 138.083 110.732 134.777 111.989C133.202 112.349 131.668 112.848 130.195 113.479C129.261 114.112 128.463 114.902 127.841 115.807C125.902 118.337 124.484 121.179 123.659 124.189C128.999 125.662 134.723 125.374 139.861 123.374Z" fill="url(#paint4_linear)"/>
<path d="M145.195 105.074C145.195 105.074 150.203 104.655 152.056 106.355C154.943 109.463 156.949 113.192 157.891 117.204C158.342 118.741 158.893 120.231 159.269 121.861C159.505 123.302 159.96 124.706 160.621 126.028C161.028 126.767 161.715 127.34 162.549 127.635C163.206 127.775 163.881 127.822 164.553 127.774C165.391 127.767 166.228 127.822 167.057 127.937C167.217 127.949 167.372 127.997 167.508 128.077C167.602 128.193 167.662 128.329 167.683 128.473C167.732 128.875 167.668 129.281 167.496 129.653C167.325 130.024 167.053 130.348 166.706 130.592C164.587 131.536 162.188 131.791 159.895 131.313C157.14 130.452 156.264 125.702 155.262 123.491C153.812 120.266 152.258 117.083 150.604 113.945C150.429 113.528 150.155 113.154 149.803 112.85C149.387 112.597 148.917 112.43 148.425 112.361L142.39 111.151C142.966 109.125 144.569 107.076 145.195 105.074Z" fill="#FFBBAB"/>
<path d="M172.14 120.417C180.314 120.417 186.94 114.257 186.94 106.657C186.94 99.0579 180.314 92.8973 172.14 92.8973C163.967 92.8973 157.34 99.0579 157.34 106.657C157.34 114.257 163.967 120.417 172.14 120.417Z" fill="#4FC3F7"/>
<path d="M172.14 115.807C177.576 115.807 181.982 111.711 181.982 106.657C181.982 101.604 177.576 97.5072 172.14 97.5072C166.705 97.5072 162.299 101.604 162.299 106.657C162.299 111.711 166.705 115.807 172.14 115.807Z" fill="#473F47"/>
<path d="M128.492 114.015L105.027 157.227L82.7646 166.54C82.7646 166.54 78.4323 169.217 78.858 163.723C79.2837 158.228 90.7781 127.355 94.2089 123.071C97.6397 118.787 108.082 110.965 128.492 114.015ZM173.768 147.821L132.599 177.203L126.589 203.14C127.489 204.248 128.776 205.031 130.229 205.354C131.681 205.677 133.21 205.52 134.552 204.91C140.186 203.163 169.311 185.119 172.942 181.045C176.573 176.971 182.032 165.422 173.768 147.821ZM196.632 57.0422L216.465 71.2911C216.465 71.2911 217.492 56.53 216.465 53.4334C215.438 50.3368 196.632 57.0422 196.632 57.0422Z" fill="#4FC3F7"/>
<path d="M106.004 155.294L102.072 161.79L128.492 180.649L134.577 175.806L106.004 155.294Z" fill="#4FC3F7"/>
<path opacity="0.36" d="M102.072 161.767C102.072 161.767 25.7935 237.295 75.8279 271.986C125.862 306.677 183.685 283.814 183.685 283.814C183.685 283.814 101.045 300.787 89.0001 257.691C81.9633 232.476 128.492 180.649 128.492 180.649L102.072 161.767Z" fill="url(#paint5_linear)"/>
<path d="M263.845 228.96L282.426 239.461H235.247L253.828 228.285V219.182L250.723 215.759V204.91C220.322 195.131 221.048 134.503 221.048 134.503H296.625V135.225C297.076 141.884 299.605 192.919 271.132 204.048C270.011 204.497 268.856 204.87 267.676 205.166V214.479L265.172 217.482L263.845 219.042V228.96Z" fill="#4FC3F7"/>
<path d="M224.253 187.052C223.336 187.081 222.422 186.942 221.562 186.642C220.703 186.342 219.915 185.888 219.245 185.306C218.436 184.484 217.892 183.468 217.675 182.373C217.458 181.278 217.577 180.148 218.018 179.113L221.474 180.044C221.253 180.521 221.179 181.045 221.258 181.558C221.338 182.072 221.568 182.555 221.924 182.954C222.456 183.339 223.083 183.594 223.748 183.696C224.413 183.798 225.094 183.743 225.731 183.536C226.197 183.452 226.634 183.265 227.005 182.989C227.376 182.713 227.669 182.358 227.859 181.953C227.559 180.975 222.851 177.297 219.195 174.2C209.178 166.051 196.657 155.923 200.739 147.774C201.302 146.493 202.187 145.355 203.32 144.456C204.452 143.556 205.8 142.922 207.25 142.606C215.263 140.883 225.881 148.892 226.332 149.241L224.053 151.825C221.373 149.777 213.26 144.841 208.051 145.865C207.136 146.074 206.289 146.486 205.582 147.066C204.876 147.646 204.331 148.376 203.994 149.195C201.039 155.062 213.385 165.05 221.524 171.662C228.786 177.553 231.966 180.253 231.34 182.745C231.017 183.739 230.415 184.636 229.597 185.344C228.779 186.052 227.773 186.545 226.682 186.773C225.888 186.958 225.072 187.051 224.253 187.052ZM295.774 187.052C294.97 187.054 294.169 186.953 293.395 186.749C292.3 186.525 291.289 186.034 290.466 185.326C289.643 184.618 289.037 183.719 288.712 182.721C288.086 180.23 291.216 177.529 298.529 171.639C306.692 165.027 319.038 155.038 316.058 149.171C315.734 148.413 315.22 147.739 314.557 147.204C313.895 146.669 313.104 146.29 312.252 146.098C306.567 144.934 297.226 150.754 294.196 153.083L292.043 150.475C292.568 150.103 304.564 141.162 313.178 142.862C314.572 143.154 315.87 143.753 316.964 144.607C318.057 145.462 318.915 146.548 319.464 147.774C323.571 155.923 311.05 166.051 301.008 174.2C297.276 177.227 292.644 180.975 292.343 182.186C292.543 182.768 293.57 183.303 294.472 183.536C295.103 183.75 295.782 183.808 296.444 183.706C297.107 183.604 297.73 183.345 298.253 182.954C298.584 182.546 298.789 182.061 298.847 181.553C298.904 181.044 298.811 180.531 298.579 180.067L302.059 179.136C302.5 180.173 302.616 181.305 302.395 182.4C302.173 183.496 301.623 184.511 300.807 185.329C300.133 185.911 299.34 186.364 298.476 186.659C297.612 186.955 296.694 187.088 295.774 187.052Z" fill="#4FC3F7"/>
<path opacity="0.28" d="M271.182 204.071C270.061 204.52 268.906 204.894 267.727 205.189V205.422H250.723V204.91C220.322 195.131 221.048 134.503 221.048 134.503H239.579C239.579 134.503 231.365 174.666 258.987 198.996C264.872 204.211 267 202.907 271.182 204.071Z" fill="white"/>
<path d="M281.299 205.398C280.154 205.555 278.989 205.555 277.844 205.398H281.299Z" fill="#4FC3F7"/>
<path opacity="0.28" d="M256.282 205.422V215.55L258.987 218.926V228.308L251.675 239.507H237.601L255.832 228.937V219.135L252.225 215.037V204.84L256.282 205.422Z" fill="white"/>
<path d="M250.723 205.445V204.933C220.322 195.154 221.048 134.526 221.048 134.526H226.432C226.432 134.526 223.126 187.913 252.225 204.84L253.227 205.445H250.723Z" fill="url(#paint6_linear)"/>
<path d="M267.727 205.189V214.502L265.222 217.505C259.913 215.806 259.087 212.174 267.727 205.189Z" fill="#4FC3F7"/>
<path d="M271.182 204.071C270.061 204.52 268.906 204.894 267.727 205.189C295.874 182.488 281.299 134.526 281.299 134.526L296.675 135.248C297.051 141.907 299.555 192.942 271.182 204.071Z" fill="url(#paint7_linear)"/>
<path d="M131.171 73.1071L132.924 69.7777C134.554 66.486 136.472 63.3245 138.659 60.325C143.192 54.5276 145.545 47.5196 149.452 41.3264C149.708 40.99 149.864 40.5963 149.903 40.1856C149.903 39.2776 148.751 38.7654 147.774 38.5325C146.492 38.1353 145.122 38.0472 143.793 38.2764C143.13 38.3996 142.52 38.6981 142.036 39.1359C141.552 39.5737 141.214 40.1323 141.063 40.7444C141.046 41.4543 141.105 42.1639 141.238 42.8631C141.161 44.8449 140.426 46.756 139.135 48.3345L129.268 63.1887C127.909 64.8527 127.045 66.8201 126.764 68.893C126.821 69.9737 127.301 70.9978 128.112 71.7736C128.923 72.5493 130.011 73.0234 131.171 73.1071Z" fill="#FFBBAB"/>
<path d="M131.171 73.1071C131.971 71.9741 132.267 70.5972 131.998 69.2655C131.71 67.5139 131.71 65.7319 131.998 63.9804C132.594 62.2975 132.697 60.4975 132.298 58.7651C132.298 58.7651 132.298 58.6021 132.148 58.5555C132.088 58.5204 132.018 58.5017 131.948 58.5017C131.877 58.5017 131.807 58.5204 131.747 58.5555C131.136 58.8972 130.682 59.4358 130.47 60.0689C129.418 62.3971 126.213 66.3319 126.664 68.8697C126.718 69.9695 127.208 71.0116 128.041 71.7943C128.874 72.5771 129.989 73.0449 131.171 73.1071Z" fill="url(#paint8_linear)"/>
<path d="M122.982 74.6204L128.141 68.5437L134.276 73.759L128.492 78.6017L122.982 74.6204Z" fill="#4FC3F7"/>
<path d="M122.982 74.6204L128.141 68.5437L134.276 73.759L128.492 78.6017L122.982 74.6204Z" fill="url(#paint9_linear)"/>
<path d="M136.18 82.1174L138.559 82.8857C139.385 83.1419 141.063 84.1663 141.839 83.4678C142.616 82.7693 141.839 80.6506 141.839 79.8823C141.444 77.1259 140.731 74.4172 139.711 71.8033C139.332 71.1787 139.098 70.487 139.025 69.7731C138.951 69.0592 139.04 68.339 139.285 67.659C139.5 67.3028 139.813 67.0055 140.191 66.7971C140.569 66.5886 140.999 66.4764 141.439 66.4716C141.872 66.4782 142.298 66.5835 142.677 66.7783C143.057 66.9731 143.38 67.2515 143.617 67.5891C143.957 68.336 144.2 69.1175 144.343 69.9174C144.61 70.4392 144.714 71.0198 144.644 71.5937C144.506 71.849 144.389 72.1136 144.293 72.3853C144.276 72.689 144.336 72.9921 144.469 73.2701L147.599 80.93C148.466 82.567 148.797 84.4048 148.551 86.2152C148.116 87.4056 147.261 88.4241 146.124 89.1048C144.987 89.7855 143.636 90.0882 142.29 89.9636C139.304 89.6882 136.43 88.763 133.901 87.2629C133.625 87.1232 133.3 86.8671 133.4 86.5877C133.476 86.4662 133.589 86.3689 133.726 86.3083C134.535 85.8734 135.216 85.2571 135.704 84.5155C135.976 84.1768 136.161 83.7842 136.244 83.3682C136.326 82.9523 136.304 82.5242 136.18 82.1174ZM129.118 69.6613C129.058 69.9803 128.892 70.2736 128.642 70.4994C128.256 70.7242 127.818 70.8599 127.365 70.8952C126.898 70.9437 126.456 71.1131 126.088 71.3842C126.031 71.4805 126.001 71.5886 126.001 71.6985C126.001 71.8084 126.031 71.9165 126.088 72.0128L126.764 74.6903C126.838 74.8861 126.838 75.0998 126.764 75.2956C126.63 75.5272 126.406 75.7023 126.138 75.7846C125.136 76.2269 123.859 76.6227 122.982 75.9941C122.541 75.6246 122.235 75.1363 122.106 74.5972C120.816 71.6247 120.039 68.4818 119.802 65.2842C119.708 64.3211 119.838 63.3505 120.184 62.4385C120.53 61.5264 121.083 60.6944 121.805 59.999C123.213 58.9377 125.009 58.4282 126.814 58.5788C127.218 58.5971 127.611 58.7063 127.96 58.8968C128.309 59.0874 128.603 59.3537 128.817 59.6731C129.093 60.1387 128.817 60.6277 128.993 61.1399C129.071 61.8864 129.214 62.626 129.418 63.3517C129.521 63.7 129.646 64.0421 129.794 64.3761C129.962 64.6512 130.081 64.9501 130.145 65.2609C130.147 65.8329 130.01 66.398 129.744 66.9139C129.493 67.5462 129.317 68.202 129.218 68.8697C129.268 69.1956 129.268 69.4284 129.118 69.6613Z" fill="#FFBBAB"/>
<path d="M129.894 58.2762C129.794 58.869 129.538 59.4298 129.149 59.9089C128.76 60.3881 128.251 60.7708 127.665 61.0235C124.961 62.2109 121.104 62.0479 122.131 65.68C122.722 67.098 122.953 68.6237 122.805 70.1382C122.657 71.6526 122.135 73.1149 121.28 74.4109C120.654 75.2724 119.877 76.0174 119.326 76.9255C118.425 78.3224 118.149 80.022 117.173 81.3724C115.219 84.0499 111.263 84.6087 107.807 84.6087C106.485 84.5822 105.171 84.8122 103.95 85.2839C101.121 86.5877 99.8434 90.4526 96.7131 90.5923C93.5828 90.732 92.506 86.9369 90.7531 85.0743C89.5556 83.9534 88.75 82.5224 88.4417 80.9688C88.1334 79.4151 88.3368 77.8111 89.0251 76.3667C92.2556 70.2201 102.798 70.5926 106.78 64.7254C109.234 61.3262 109.234 56.6697 113.491 54.4811C115.831 53.4686 118.4 52.999 120.978 53.1126C123.556 53.2261 126.065 53.9194 128.291 55.133C128.879 55.4349 129.35 55.9007 129.637 56.4646C129.925 57.0286 130.015 57.6622 129.894 58.2762Z" fill="#473F47"/>
<path d="M134.527 101.954C134.831 102.184 135.179 102.358 135.554 102.466C136.865 102.766 138.226 102.821 139.56 102.629C141.487 102.536 143.418 102.536 145.345 102.629C145.813 102.607 146.277 102.721 146.672 102.955C147.323 103.468 147.123 104.422 146.848 105.167C145.647 108.556 144.251 111.883 142.666 115.132C142.118 116.552 141.166 117.808 139.911 118.764C138.92 119.336 137.811 119.709 136.655 119.858C134.333 120.301 131.983 120.604 129.619 120.766C127.317 121.079 124.967 120.788 122.832 119.928C120.552 118.65 118.872 116.623 118.124 114.247C117.165 111.958 116.931 109.462 117.448 107.053C118.074 104.492 119.326 103.747 118.55 101C117.522 97.5922 116.802 94.111 116.396 90.5923C116.071 87.3984 116.394 84.1761 117.348 81.093C117.727 79.6654 118.371 78.3102 119.251 77.0884C120.15 75.8887 121.469 75.0164 122.982 74.6205C123.733 74.4409 124.521 74.4475 125.268 74.6395C126.015 74.8315 126.695 75.2022 127.24 75.7148C130.17 78.6716 134.176 78.8346 137.507 81.3724C137.702 81.4886 137.851 81.6601 137.933 81.8613C138.019 82.0711 138.019 82.3034 137.933 82.5132L135.754 87.3793C135.539 87.9031 135.262 88.4029 134.928 88.8694C134.627 89.2652 134.251 89.5911 133.976 89.9869C133.22 91.1767 132.838 92.5401 132.874 93.9217C132.849 96.2499 132.248 100.301 134.527 101.954Z" fill="#4FC3F7"/>
<path d="M131.347 105.074C130.951 105.254 130.511 105.334 130.071 105.305C129.631 105.277 129.207 105.141 128.842 104.911C127.089 103.7 128.442 102.862 128.842 101.605C129.379 99.8661 129.524 98.0431 129.268 96.2499C128.993 92.7808 128.692 89.2651 128.417 85.8193C128.567 86.6808 132.974 87.8915 134.702 88.9858C134.402 89.3816 134.026 89.7075 133.751 90.1033C131.797 92.7575 132.824 98.0659 132.874 101.069C132.999 102.513 132.799 104.329 131.347 105.074Z" fill="url(#paint10_linear)"/>
<path d="M151.656 60.2784C152.402 62.9347 152.402 65.7244 151.656 68.3807C151.522 68.5062 151.359 68.6017 151.18 68.6601C151.042 68.7045 150.892 68.7045 150.754 68.6601C149.627 68.4506 143.242 64.5624 135.729 67.0071C135.349 67.1393 134.942 67.1917 134.537 67.1607C134.133 67.1296 133.74 67.0158 133.389 66.8273C133.037 66.6389 132.734 66.3805 132.503 66.0707C132.271 65.7609 132.115 65.4072 132.048 65.0351C131.98 64.6629 132.002 64.2815 132.111 63.918C132.221 63.5546 132.415 63.2181 132.681 62.9326C132.946 62.6472 133.276 62.4199 133.648 62.2669C134.019 62.114 134.422 62.0392 134.827 62.0479C134.827 62.0479 144.669 58.9979 146.798 53.573C147.073 52.7581 147.624 52.4555 148.25 52.5486C148.644 52.6213 149.013 52.781 149.327 53.0143C150.582 55.2799 151.372 57.7434 151.656 60.2784Z" fill="#4FC3F7"/>
<path d="M151.656 60.2784C152.402 62.9347 152.402 65.7244 151.656 68.3807C151.62 68.4506 151.568 68.5121 151.503 68.5605C151.437 68.6089 151.361 68.643 151.28 68.6601C150.278 68.6601 148.776 65.1677 148.075 60.8604C147.374 56.5532 147.424 53.1772 148.25 52.5486H148.45C148.726 52.5486 149.001 52.7116 149.327 53.1074C150.571 55.3443 151.36 57.7753 151.656 60.2784Z" fill="url(#paint11_linear)"/>
<path d="M166.255 127.402C165.915 127.494 165.623 127.699 165.434 127.978C165.245 128.257 165.172 128.59 165.229 128.915C165.229 129.288 165.704 129.66 165.529 130.01C165.468 130.105 165.385 130.186 165.285 130.247C165.185 130.307 165.072 130.346 164.953 130.359C162.604 131.027 160.073 130.87 157.841 129.916C157.787 130.1 157.786 130.294 157.838 130.478C157.891 130.663 157.996 130.83 158.142 130.964C158.485 131.555 158.996 132.046 159.619 132.384C160.035 132.533 160.476 132.612 160.921 132.617C164.417 132.574 167.808 131.507 170.613 129.567C170.88 129.411 171.117 129.215 171.314 128.985C171.398 128.859 171.443 128.714 171.443 128.566C171.443 128.418 171.398 128.273 171.314 128.147C171.164 127.798 170.713 127.681 170.312 127.612C169.615 127.515 168.913 127.453 168.209 127.425C167.566 127.295 166.901 127.287 166.255 127.402Z" fill="#4FC3F7"/>
</g>
<defs>
<linearGradient id="paint0_linear" x1="257.96" y1="162.815" x2="264.417" y2="79.4785" gradientUnits="userSpaceOnUse">
<stop offset="0.01"/>
<stop offset="0.08" stop-opacity="0.69"/>
<stop offset="0.21" stop-opacity="0.32"/>
<stop offset="1" stop-opacity="0"/>
</linearGradient>
<linearGradient id="paint1_linear" x1="1471.58" y1="1757.04" x2="1860.78" y2="1127.74" gradientUnits="userSpaceOnUse">
<stop offset="0.01"/>
<stop offset="0.08" stop-opacity="0.69"/>
<stop offset="0.21" stop-opacity="0.32"/>
<stop offset="1" stop-opacity="0"/>
</linearGradient>
<linearGradient id="paint2_linear" x1="-2857.8" y1="14768.1" x2="-3957.16" y2="13869.3" gradientUnits="userSpaceOnUse">
<stop offset="0.01"/>
<stop offset="0.08" stop-opacity="0.69"/>
<stop offset="0.21" stop-opacity="0.32"/>
<stop offset="1" stop-opacity="0"/>
</linearGradient>
<linearGradient id="paint3_linear" x1="52.1129" y1="88.8461" x2="285.815" y2="138.835" gradientUnits="userSpaceOnUse">
<stop offset="0.01"/>
<stop offset="0.13" stop-opacity="0.69"/>
<stop offset="0.25" stop-opacity="0.32"/>
<stop offset="1" stop-opacity="0"/>
</linearGradient>
<linearGradient id="paint4_linear" x1="3383.86" y1="1518.22" x2="3282.65" y2="2853.29" gradientUnits="userSpaceOnUse">
<stop offset="0.01"/>
<stop offset="0.13" stop-opacity="0.69"/>
<stop offset="0.25" stop-opacity="0.32"/>
<stop offset="1" stop-opacity="0"/>
</linearGradient>
<linearGradient id="paint5_linear" x1="3235.43" y1="8513.19" x2="14290.6" y2="29843.8" gradientUnits="userSpaceOnUse">
<stop offset="0.01"/>
<stop offset="0.08" stop-opacity="0.69"/>
<stop offset="0.21" stop-opacity="0.32"/>
<stop offset="1" stop-opacity="0"/>
</linearGradient>
<linearGradient id="paint6_linear" x1="2496.87" y1="6779.6" x2="4658.42" y2="6602.24" gradientUnits="userSpaceOnUse">
<stop offset="0.01"/>
<stop offset="0.13" stop-opacity="0.69"/>
<stop offset="0.25" stop-opacity="0.32"/>
<stop offset="1" stop-opacity="0"/>
</linearGradient>
<linearGradient id="paint7_linear" x1="4729.42" y1="6641.83" x2="2391.16" y2="6506.77" gradientUnits="userSpaceOnUse">
<stop offset="0.01"/>
<stop offset="0.13" stop-opacity="0.69"/>
<stop offset="0.25" stop-opacity="0.32"/>
<stop offset="1" stop-opacity="0"/>
</linearGradient>
<linearGradient id="paint8_linear" x1="1176.64" y1="-1891.87" x2="1220.9" y2="-1905.96" gradientUnits="userSpaceOnUse">
<stop offset="0.01"/>
<stop offset="0.13" stop-opacity="0.69"/>
<stop offset="0.25" stop-opacity="0.32"/>
<stop offset="1" stop-opacity="0"/>
</linearGradient>
<linearGradient id="paint9_linear" x1="3166.37" y1="-1500.25" x2="3318.34" y2="-1552.09" gradientUnits="userSpaceOnUse">
<stop offset="0.01"/>
<stop offset="0.13" stop-opacity="0.69"/>
<stop offset="0.25" stop-opacity="0.32"/>
<stop offset="1" stop-opacity="0"/>
</linearGradient>
<linearGradient id="paint10_linear" x1="1335.8" y1="-2449.27" x2="1466.38" y2="-2462.68" gradientUnits="userSpaceOnUse">
<stop offset="0.01"/>
<stop offset="0.13" stop-opacity="0.69"/>
<stop offset="0.25" stop-opacity="0.32"/>
<stop offset="1" stop-opacity="0"/>
</linearGradient>
<linearGradient id="paint11_linear" x1="715.528" y1="-2115.87" x2="773.448" y2="-2121.12" gradientUnits="userSpaceOnUse">
<stop offset="0.01"/>
<stop offset="0.13" stop-opacity="0.69"/>
<stop offset="0.25" stop-opacity="0.32"/>
<stop offset="1" stop-opacity="0"/>
</linearGradient>
<clipPath id="clip0">
<rect width="415" height="304" fill="white"/>
</clipPath>
</defs>
</svg>
